<?xml version="1.0" standalone="no"?>
<svg viewBox="0 0 200 200" xmlns="http://www.w3.org/2000/svg">
  <path fill="#F2F4F8" d="M44.5,-65C56.3,-52.6,63.7,-37.9,65.8,-23.3C67.9,-8.7,64.6,5.6,60.1,19.5C55.5,33.4,49.6,46.8,39.4,60.1C29.2,73.4,14.6,86.5,-1.7,88.8C-17.9,91.1,-35.9,82.6,-48.4,70C-60.8,57.5,-67.9,40.9,-71.1,24.6C-74.4,8.3,-73.8,-7.8,-71.1,-25.2C-68.3,-42.7,-63.4,-61.5,-51.1,-73.8C-38.9,-86.1,-19.5,-91.7,-1.6,-89.6C16.3,-87.4,32.6,-77.4,44.5,-65Z" transform="translate(100 100)" />
</svg>
